<?xml version="1.0" standalone="no"?>
<!DOCTYPE svg PUBLIC "-//W3C//DTD SVG 20010904//EN"
 "http://www.w3.org/TR/2001/REC-SVG-20010904/DTD/svg10.dtd">
<svg version="1.0" xmlns="http://www.w3.org/2000/svg"
 width="1109.000000pt" height="550.000000pt" viewBox="0 0 1109.000000 550.000000"
 preserveAspectRatio="xMidYMid meet">
<metadata>
Created by potrace 1.16, written by Peter Selinger 2001-2019
</metadata>
<g transform="translate(0.000000,550.000000) scale(0.100000,-0.100000)"
fill="#000000" stroke="none">
<path d="M0 2750 l0 -2750 5545 0 5545 0 0 2750 0 2750 -234 0 -234 0 -6 -25
c-4 -14 -13 -25 -21 -25 -18 0 -20 21 -3 38 9 9 -684 12 -3119 12 -2495 0
-3133 -3 -3137 -12 -5 -10 -7 -10 -12 0 -4 9 -151 12 -685 12 -603 0 -679 -2
-679 -15 0 -23 -41 -36 -65 -20 -11 7 -19 18 -17 24 1 8 -327 11 -1139 11
l-1141 0 5 -21 c7 -28 -11 -77 -33 -89 -21 -11 -70 -13 -95 -4 -23 9 -48 62
-41 90 l6 24 -220 0 -220 0 0 -2750z m9367 419 c23 -122 14 -263 -20 -316 -11
-18 -78 -16 -101 2 -19 14 -19 15 6 15 34 0 85 57 94 106 8 42 0 221 -11 248
-6 14 -4 17 6 14 7 -2 19 -32 26 -69z m-426 -171 c-6 -17 -11 -44 -11 -59 0
-15 -4 -31 -10 -34 -6 -4 -10 -53 -10 -114 0 -86 3 -111 15 -121 12 -10 13
-16 5 -24 -18 -18 -53 32 -46 66 3 17 1 28 -6 28 -8 0 -9 32 -5 108 6 119 16
160 49 212 l23 35 3 -33 c2 -19 -1 -47 -7 -64z m201 -218 c19 -40 22 -67 26
-227 l4 -183 -43 -40 c-24 -22 -51 -42 -61 -45 -26 -9 -91 12 -104 32 -10 16
-7 18 32 14 39 -3 48 1 78 31 40 40 66 117 66 197 0 48 -19 192 -36 271 -5 20
-3 22 6 10 6 -8 21 -35 32 -60z m-364 -64 c-2 -59 -6 -80 -16 -78 -7 1 -15 -6
-18 -15 -13 -39 -79 -169 -93 -183 -12 -13 -13 -10 -7 22 4 21 2 39 -4 43 -6
3 0 21 15 43 39 59 77 163 78 213 1 42 2 45 24 41 23 -4 24 -7 21 -86z m282
-114 c0 -10 -4 -9 -16 2 -22 22 -27 21 -60 -19 -23 -28 -36 -35 -66 -35 -47 0
-72 -24 -64 -61 13 -66 -148 -229 -187 -190 -28 28 -70 -2 -104 -74 -20 -45
-53 -56 -104 -35 -36 15 -54 3 -80 -56 -30 -71 -68 -124 -88 -124 -11 0 -39
19 -63 41 -27 26 -33 35 -16 24 18 -11 37 -15 53 -11 28 7 67 69 85 136 7 25
14 51 16 59 3 9 10 6 24 -12 46 -58 114 -39 149 42 11 27 21 56 21 65 0 24 18
28 31 8 10 -17 18 -18 53 -10 23 5 51 16 64 24 35 23 78 97 97 169 17 62 18
64 39 50 11 -8 38 -15 59 -15 52 0 92 40 101 101 17 109 18 109 37 19 10 -47
18 -91 19 -98z m-979 -331 c1 -25 1 -62 0 -82 -2 -20 2 -61 7 -90 7 -34 7
-129 3 -254 -10 -239 -14 -254 -97 -292 -61 -28 -106 -26 -145 6 -23 18 -23
18 29 13 51 -4 53 -3 96 39 69 69 81 123 80 344 0 99 -4 224 -8 277 -7 94 -7
96 13 91 17 -4 21 -14 22 -52z m-158 -63 c-4 -45 -9 -58 -22 -58 -11 0 -12 -3
-4 -8 16 -10 12 -170 -5 -181 -10 -6 -10 -15 -3 -35 9 -22 7 -30 -10 -47 -11
-11 -25 -34 -31 -49 -11 -32 -67 -70 -101 -70 -18 1 -17 3 9 14 73 32 130 186
123 336 -1 41 4 68 22 106 13 29 25 51 25 50 1 0 -1 -27 -3 -58z m-623 -87 c0
-10 -11 -44 -25 -76 -33 -74 -60 -242 -60 -372 0 -91 -2 -103 -17 -103 -66 0
-42 228 58 553 7 24 44 22 44 -2z m-5345 -136 c72 -15 209 -75 188 -82 -7 -3
-21 1 -33 7 -51 27 -167 48 -241 44 -41 -3 -94 -5 -119 -4 -50 1 -193 -31
-170 -38 30 -9 41 -24 29 -38 -17 -21 -68 -18 -77 5 -7 19 -8 19 -57 -3 -106
-46 -154 -77 -198 -126 -69 -77 -81 -143 -40 -225 l15 -30 -31 29 c-39 38 -66
105 -57 148 10 52 54 116 109 159 85 68 236 134 358 158 71 14 248 12 324 -4z
m325 -144 c12 -23 14 -91 2 -91 -5 0 -15 -11 -22 -25 -20 -37 -79 -72 -133
-79 -27 -3 -54 -10 -61 -15 -15 -13 -88 8 -83 23 2 6 21 10 41 8 25 -2 36 1
31 7 -3 6 -18 11 -33 12 -15 0 1 7 35 14 34 7 78 21 97 30 47 22 96 79 96 110
0 30 15 33 30 6z m4810 13 c0 -22 -24 -93 -30 -89 -14 8 -65 -58 -77 -100 -16
-58 -37 -166 -36 -193 1 -13 -4 -21 -11 -19 -6 2 -12 31 -13 72 -1 73 24 159
69 234 35 59 98 120 98 95z m565 -54 c3 -11 13 -20 20 -20 16 0 10 -28 -9 -45
-6 -5 -24 -30 -40 -55 -42 -65 -75 -98 -113 -111 -43 -14 -89 -4 -96 22 -4 16
0 19 31 19 30 0 44 8 87 53 28 29 62 76 75 105 25 56 35 63 45 32z m-1671
-205 c-13 -57 -34 -128 -48 -157 -13 -29 -41 -92 -62 -140 -22 -48 -41 -82
-43 -75 -2 7 -9 15 -14 19 -12 7 17 90 111 310 36 86 69 155 73 153 3 -3 -4
-52 -17 -110z m770 6 c-3 -9 -15 -52 -27 -96 -11 -44 -23 -82 -26 -85 -19 -16
-29 -48 -18 -59 14 -14 3 -25 -18 -18 -24 10 -18 82 16 198 17 57 34 108 37
113 9 15 44 -36 36 -53z m-159 22 c-19 -50 -37 -173 -32 -220 4 -41 2 -53 -8
-53 -8 0 -22 -12 -32 -27 -10 -16 -34 -51 -55 -79 -21 -28 -38 -56 -38 -62 0
-6 -25 -20 -57 -32 -65 -24 -109 -20 -119 13 l-7 21 -18 -23 c-37 -46 -105
-10 -81 43 9 20 19 26 42 26 18 0 33 -6 37 -15 6 -17 54 -45 76 -45 58 0 253
306 273 428 4 23 11 42 16 42 6 0 7 -8 3 -17z m-3533 -62 c16 -12 10 -19 -60
-69 -42 -31 -86 -68 -97 -82 -10 -14 -75 -78 -142 -144 -68 -65 -123 -125
-123 -132 0 -8 10 -14 23 -15 21 0 21 -1 2 -9 -59 -26 -113 6 -66 39 81 57
108 92 79 105 -14 5 55 73 229 227 70 62 100 95 96 106 -5 13 -3 13 18 1 13
-7 32 -19 41 -27z m4049 -9 c14 -24 14 -32 3 -48 -34 -47 -61 -81 -92 -113
-32 -33 -34 -34 -97 -27 l-65 7 -35 -50 c-37 -51 -74 -75 -137 -86 -30 -6 -38
-4 -47 13 -16 29 -14 32 18 32 37 0 110 64 150 133 17 28 31 45 31 36 0 -45
85 -72 138 -45 32 17 70 73 93 139 7 20 15 37 19 37 3 0 12 -13 21 -28z
m-1649 1 c28 -25 22 -48 -30 -117 -27 -34 -66 -92 -87 -127 -21 -35 -49 -75
-62 -88 -61 -63 -98 -174 -68 -205 15 -15 15 -16 -4 -16 -25 0 -35 30 -27 84
8 51 80 193 175 346 39 63 71 120 71 127 0 17 10 16 32 -4z m-3313 -54 c22 -6
38 -16 35 -20 -2 -4 -11 -6 -18 -3 -14 5 -74 -28 -189 -105 -38 -25 -83 -55
-100 -65 -18 -11 -43 -32 -57 -47 -34 -36 -90 -69 -118 -69 -12 0 -31 -11 -43
-24 -14 -17 -27 -22 -46 -18 -31 6 -49 -11 158 146 186 142 311 227 325 222 7
-3 30 -10 53 -17z m311 -37 c0 -15 -38 -44 -49 -38 -6 4 -47 -17 -93 -45 -102
-64 -111 -72 -95 -88 9 -10 8 -16 -7 -27 -26 -18 -36 -18 -36 2 0 9 -6 14 -12
11 -7 -2 -13 -12 -13 -23 0 -15 -8 -20 -39 -22 -39 -3 -39 -3 -32 29 7 36 30
61 99 108 93 63 277 125 277 93z m118 -91 c-18 -20 -39 -44 -47 -53 -9 -10
-19 -18 -24 -18 -12 0 -102 -93 -110 -114 -4 -11 -15 -16 -29 -14 -42 6 -20
40 87 143 58 55 105 106 105 113 0 9 7 8 25 -4 l25 -16 -32 -37z m3172 22 c0
-2 -9 -38 -21 -80 -21 -80 -63 -158 -79 -148 -4 3 -21 -5 -37 -18 -15 -12 -48
-35 -72 -51 -24 -15 -46 -36 -48 -47 -3 -10 -9 -19 -14 -19 -17 0 -9 29 17 59
14 17 23 35 19 40 -3 6 11 21 31 35 96 65 172 164 160 210 -4 17 -1 21 19 21
14 0 25 -1 25 -2z m-1788 -20 c10 -9 18 -26 17 -37 0 -31 -100 -116 -152 -130
-67 -17 -132 -65 -166 -122 -29 -46 -31 -55 -22 -93 9 -43 3 -51 -23 -25 -12
11 -16 36 -16 90 l0 74 48 34 c26 19 100 67 165 106 97 60 117 76 117 96 0 28
7 30 32 7z m-748 -62 c7 -10 -31 -46 -49 -46 -23 0 -215 -158 -228 -188 -12
-28 -47 -45 -66 -32 -19 11 -12 33 17 54 49 37 54 43 49 62 -10 38 167 143
265 158 4 1 9 -3 12 -8z m1964 -8 c-24 -49 -33 -63 -40 -63 -5 0 -30 -21 -57
-48 -48 -48 -125 -178 -115 -194 8 -13 -16 -38 -37 -38 -28 0 -25 59 5 118 53
102 180 231 229 232 10 0 17 -3 15 -7z m-1816 -58 c-10 -11 -33 -42 -52 -70
-19 -27 -52 -67 -73 -87 -22 -20 -36 -41 -33 -46 6 -10 -35 -32 -59 -32 -42 0
2 76 112 193 34 37 63 74 63 82 0 12 5 11 29 -3 29 -16 29 -18 13 -37z m162
-27 l-6 -73 -87 -90 c-48 -49 -106 -112 -131 -140 -24 -27 -38 -43 -31 -33 17
23 2 28 -46 15 -57 -15 -117 0 -121 30 -6 38 -25 46 -77 30 -57 -16 -149 -1
-191 32 -15 12 -22 21 -16 21 6 0 13 -4 17 -9 3 -5 19 -12 35 -16 24 -5 43 1
88 25 31 18 65 39 75 48 16 14 17 13 17 -12 0 -19 12 -40 35 -63 31 -31 40
-35 68 -29 17 4 56 21 85 39 67 40 192 154 192 174 0 13 86 123 97 123 2 0 1
-33 -3 -72z m2553 64 c10 -6 8 -20 -6 -59 -37 -100 -107 -168 -188 -182 -26
-5 -55 -11 -64 -15 -9 -4 -21 0 -29 9 -11 13 -8 15 22 15 62 0 139 73 209 197
24 43 34 49 56 35z m-1607 -38 c0 -17 -42 -62 -54 -58 -7 3 -28 -14 -47 -36
-19 -23 -48 -56 -65 -73 -36 -37 -99 -127 -99 -142 0 -5 -8 -11 -18 -13 -23
-5 -35 27 -16 42 29 22 49 59 38 72 -17 21 96 140 182 188 41 24 79 34 79 20z
m-358 -43 c16 -13 12 -20 -55 -95 -105 -117 -128 -147 -122 -157 10 -14 -43
-35 -57 -21 -7 7 0 21 26 49 28 28 36 44 33 61 -4 19 11 43 59 103 35 43 64
83 64 90 0 11 9 7 52 -30z m507 5 l23 -25 -27 -35 c-14 -19 -30 -36 -34 -38
-18 -6 -89 -120 -85 -133 7 -17 -32 -39 -53 -31 -11 5 -13 14 -9 34 9 37 138
251 152 252 6 0 21 -11 33 -24z m1092 -150 c-9 -10 -50 -41 -91 -68 -71 -47
-77 -49 -125 -42 -27 3 -60 10 -71 15 -16 5 -35 0 -68 -17 -59 -31 -144 -48
-162 -33 -21 18 -17 29 11 29 35 0 83 25 126 66 l35 34 13 -24 c29 -53 113
-62 182 -18 24 16 67 53 94 83 l50 54 11 -30 c8 -24 7 -34 -5 -49z m-956 44
c3 -10 -1 -33 -10 -50 -22 -42 -104 -129 -140 -147 -16 -9 -32 -19 -35 -23 -9
-12 -73 -40 -92 -40 -24 0 -53 15 -79 41 -24 24 -41 24 -65 -2 -20 -22 -93
-59 -118 -59 -24 0 -61 20 -74 40 -11 17 -9 18 18 8 25 -8 37 -6 72 15 24 14
59 42 78 62 l35 36 11 -33 c13 -40 68 -74 105 -65 36 9 118 82 184 165 61 75
97 93 110 52z m-1243 -102 c4 -34 2 -45 -7 -42 -7 3 -20 -8 -30 -23 -10 -15
-28 -39 -41 -53 -13 -14 -32 -35 -41 -47 -12 -14 -35 -23 -67 -28 l-49 -7 33
44 c32 41 192 210 196 205 1 -1 4 -23 6 -49z m286 -55 c0 -16 1 -33 3 -39 2
-7 -13 -26 -35 -43 -33 -27 -47 -31 -97 -31 -51 0 -63 4 -91 30 l-33 30 32 -6
c50 -10 94 3 158 46 33 22 61 40 62 40 1 0 1 -12 1 -27z m5088 -329 c13 -14
24 -33 24 -43 0 -10 7 -24 15 -31 23 -19 19 -76 -7 -94 -32 -23 -40 -21 -86
26 -47 47 -51 66 -22 93 13 12 18 25 14 41 -4 16 -1 23 13 27 10 3 20 5 22 6
2 0 14 -10 27 -25z"/>
</g>
</svg>
